<svg xmlns="http://www.w3.org/2000/svg" width="30.702" height="24.562" viewBox="0 0 30.702 24.562">
  <path id="Icon_awesome-user-plus" data-name="Icon awesome-user-plus" d="M29.935,9.978h-3.07V6.908A.77.77,0,0,0,26.1,6.14H24.562a.77.77,0,0,0-.768.768v3.07h-3.07a.77.77,0,0,0-.768.768v1.535a.77.77,0,0,0,.768.768h3.07v3.07a.77.77,0,0,0,.768.768H26.1a.77.77,0,0,0,.768-.768v-3.07h3.07a.77.77,0,0,0,.768-.768V10.746A.77.77,0,0,0,29.935,9.978Zm-19.189,2.3a6.14,6.14,0,1,0-6.14-6.14A6.14,6.14,0,0,0,10.746,12.281Zm4.3,1.535h-.8a8.351,8.351,0,0,1-6.994,0h-.8A6.449,6.449,0,0,0,0,20.264v2a2.3,2.3,0,0,0,2.3,2.3H19.189a2.3,2.3,0,0,0,2.3-2.3v-2A6.449,6.449,0,0,0,15.044,13.816Z" fill="#fff"/>
</svg>
