<svg xmlns="http://www.w3.org/2000/svg" width="67" height="59.542" viewBox="0 0 67 59.542">
  <g id="Group_4812" data-name="Group 4812" transform="translate(-174 -813)">
    <path id="Path_2294" data-name="Path 2294" d="M33.5,7.458C52,7.458,67,15,67,33.5a33.5,33.5,0,0,1-67,0C0,15,15,7.458,33.5,7.458Z" transform="translate(174 805.542)" fill="#f70"/>
    <path id="Icon_awesome-calculator" data-name="Icon awesome-calculator" d="M19.372,0H2.325A2.383,2.383,0,0,0,0,2.325V22.471A2.383,2.383,0,0,0,2.325,24.8H19.372A2.383,2.383,0,0,0,21.7,22.471V2.325A2.383,2.383,0,0,0,19.372,0ZM6.2,21.077a.667.667,0,0,1-.62.62H3.719a.667.667,0,0,1-.62-.62v-1.86a.667.667,0,0,1,.62-.62h1.86a.667.667,0,0,1,.62.62Zm0-6.2a.667.667,0,0,1-.62.62H3.719a.667.667,0,0,1-.62-.62v-1.86a.667.667,0,0,1,.62-.62h1.86a.667.667,0,0,1,.62.62Zm6.2,6.2a.667.667,0,0,1-.62.62H9.918a.667.667,0,0,1-.62-.62v-1.86a.667.667,0,0,1,.62-.62h1.86a.667.667,0,0,1,.62.62Zm0-6.2a.667.667,0,0,1-.62.62H9.918a.667.667,0,0,1-.62-.62v-1.86a.667.667,0,0,1,.62-.62h1.86a.667.667,0,0,1,.62.62Zm6.2,6.2a.667.667,0,0,1-.62.62h-1.86a.667.667,0,0,1-.62-.62V13.018a.667.667,0,0,1,.62-.62h1.86a.667.667,0,0,1,.62.62v8.059Zm0-12.4a.667.667,0,0,1-.62.62H3.719a.667.667,0,0,1-.62-.62V3.719a.667.667,0,0,1,.62-.62H17.977a.667.667,0,0,1,.62.62Z" transform="translate(197 830)" fill="#fff"/>
  </g>
</svg>
