<svg xmlns="http://www.w3.org/2000/svg" width="21" height="16" viewBox="0 0 21 16">
  <g id="Group_207" data-name="Group 207" transform="translate(-413.825 -1228.156)">
    <rect id="Rectangle_14" data-name="Rectangle 14" width="21" height="16" rx="3" transform="translate(413.825 1228.156)" fill="#fff"/>
    <path id="Rectangle_14_-_Outline" data-name="Rectangle 14 - Outline" d="M3,1.5A1.5,1.5,0,0,0,1.5,3V13A1.5,1.5,0,0,0,3,14.5H18A1.5,1.5,0,0,0,19.5,13V3A1.5,1.5,0,0,0,18,1.5H3M3,0H18a3,3,0,0,1,3,3V13a3,3,0,0,1-3,3H3a3,3,0,0,1-3-3V3A3,3,0,0,1,3,0Z" transform="translate(413.825 1228.156)" fill="#707070"/>
    <path id="Path_656" data-name="Path 656" d="M416.912,1234.387l-7.469-5.549a.75.75,0,0,1,.895-1.2l6.575,4.884,6.575-4.884a.75.75,0,1,1,.895,1.2Z" transform="translate(7.458 4.063)" fill="#707070"/>
  </g>
</svg>
