<svg xmlns="http://www.w3.org/2000/svg" width="19.17" height="13.07" viewBox="0 0 19.17 13.07">
  <path id="Path_3284" data-name="Path 3284" d="M10.585,5.743a8.513,8.513,0,0,1,7.685,4.793,8.559,8.559,0,0,1-15.371,0,8.513,8.513,0,0,1,7.685-4.793m0-1.743A10.305,10.305,0,0,0,1,10.535a10.3,10.3,0,0,0,19.17,0A10.305,10.305,0,0,0,10.585,4Zm0,4.357a2.178,2.178,0,1,1-2.178,2.178,2.179,2.179,0,0,1,2.178-2.178m0-1.743a3.921,3.921,0,1,0,3.921,3.921A3.927,3.927,0,0,0,10.585,6.614Z" transform="translate(-1 -4)" fill="#707070"/>
</svg>
