<svg xmlns="http://www.w3.org/2000/svg" width="19.003" height="15.203" viewBox="0 0 19.003 15.203"><path d="M9.5,11.877A4.26,4.26,0,0,1,5.259,7.924L2.144,5.517a9.9,9.9,0,0,0-1.09,1.651.961.961,0,0,0,0,.867A9.523,9.523,0,0,0,9.5,13.3a9.223,9.223,0,0,0,2.313-.311L10.274,11.8A4.28,4.28,0,0,1,9.5,11.877ZM18.82,13.6l-3.282-2.537A9.836,9.836,0,0,0,17.95,8.034a.961.961,0,0,0,0-.867A9.523,9.523,0,0,0,9.5,1.9,9.15,9.15,0,0,0,5.127,3.02L1.35.1A.475.475,0,0,0,.683.183L.1.934A.475.475,0,0,0,.184,1.6l17.47,13.5a.475.475,0,0,0,.667-.083l.583-.75a.475.475,0,0,0-.084-.667ZM13.365,9.386l-1.167-.9A2.814,2.814,0,0,0,8.75,4.863a1.415,1.415,0,0,1,.276.838,1.385,1.385,0,0,1-.046.3L6.8,4.309A4.226,4.226,0,0,1,9.5,3.325,4.273,4.273,0,0,1,13.777,7.6a4.174,4.174,0,0,1-.413,1.785Z" transform="translate(0 0)" fill="#707070"/></svg>