<svg xmlns="http://www.w3.org/2000/svg" width="29.466" height="22.913" viewBox="0 0 29.466 22.913">
  <path id="Icon_awesome-home" data-name="Icon awesome-home" d="M14.341,8.2,4.91,15.965v8.383a.818.818,0,0,0,.818.818l5.732-.015a.818.818,0,0,0,.814-.818v-4.9a.818.818,0,0,1,.818-.818h3.274a.818.818,0,0,1,.818.818V24.33a.818.818,0,0,0,.818.821l5.73.016a.818.818,0,0,0,.818-.818V15.96L15.124,8.2A.624.624,0,0,0,14.341,8.2Zm14.9,5.279L24.962,9.952V2.867a.614.614,0,0,0-.614-.614H21.483a.614.614,0,0,0-.614.614V6.581L16.29,2.814a2.455,2.455,0,0,0-3.12,0L.222,13.477a.614.614,0,0,0-.082.864l1.3,1.586a.614.614,0,0,0,.865.083L14.341,6.1a.624.624,0,0,1,.783,0l12.032,9.91a.614.614,0,0,0,.864-.082l1.3-1.586a.614.614,0,0,0-.087-.866Z" transform="translate(0.001 -2.254)" fill="#707070"/>
</svg>
