<svg xmlns="http://www.w3.org/2000/svg" width="14" height="14" viewBox="0 0 14 14">
  <g id="Medicine" transform="translate(-3.111 -3.611)">
    <g id="Group_4888" data-name="Group 4888" transform="translate(3.111 3.611)">
      <path id="Path_4120" data-name="Path 4120" d="M15.958,4.764a3.937,3.937,0,0,1,0,5.568l-2.784,2.784L7.605,7.548l2.784-2.784a3.937,3.937,0,0,1,5.568,0ZM4.264,10.889,7.048,8.105l5.568,5.568L9.833,16.458a3.937,3.937,0,0,1-5.568-5.568ZM14.224,5.82a.394.394,0,0,0,.437-.655c-1.417-.944-3.214-.4-4.471,1.273a.394.394,0,1,0,.63.472C11.925,5.436,13.278,5.189,14.224,5.82Z" transform="translate(-3.111 -3.611)" fill="#ffa849" fill-rule="evenodd"/>
      <path id="Path_4121" data-name="Path 4121" d="M15.958,10.333a3.937,3.937,0,0,0-5.568-5.568L7.605,7.548l5.568,5.568Zm-11.694.557a3.937,3.937,0,0,0,5.568,5.568l2.784-2.784L7.048,8.105Zm8.1-6.071A4.3,4.3,0,0,0,10.19,6.437a.394.394,0,1,0,.63.472c1.106-1.474,2.458-1.72,3.4-1.09a.394.394,0,0,0,.437-.655A2.689,2.689,0,0,0,12.366,4.818Z" transform="translate(-3.111 -3.611)" fill="#ffa849" fill-rule="evenodd"/>
    </g>
  </g>
</svg>
