<svg xmlns="http://www.w3.org/2000/svg" width="16.967" height="16.964" viewBox="0 0 16.967 16.964">
  <path id="Path_657" data-name="Path 657" d="M111.934,191.279a5.717,5.717,0,0,1,1.1,11.319,5.317,5.317,0,0,1-1.083.112,5.722,5.722,0,0,1-1.349-.166l-.209.205c-.188.185-.367.36-.541.541a1.388,1.388,0,0,1-1.028.454v.063a1.209,1.209,0,0,1-1.267,1.225l0,.059v.005a1.233,1.233,0,0,1-1.18,1.228l-.112.012a1.282,1.282,0,0,1-.409.972c-.178.171-.358.351-.532.532a1.373,1.373,0,0,1-.281.22l-.031.02-.2.161h-3.159l-.083-.019a1.16,1.16,0,0,1-.9-.911l-.016-.076v-3.082l.094-.169a2.3,2.3,0,0,1,.4-.5l.042-.043c.89-.886,1.793-1.789,2.666-2.662.81-.81,1.645-1.645,2.471-2.468a5.547,5.547,0,0,1,1.422-5.255,5.441,5.441,0,0,1,3.339-1.719A6.371,6.371,0,0,1,111.934,191.279Zm.019,9.93a3.817,3.817,0,0,0,.778-.08,4.218,4.218,0,0,0-.8-8.35,4.864,4.864,0,0,0-.651.045,3.977,3.977,0,0,0-2.442,1.252,4.111,4.111,0,0,0-1,4.126.956.956,0,0,1-.267.981c-.888.885-1.79,1.786-2.662,2.658s-1.775,1.775-2.664,2.661l-.03.031-.064.066v2.145H104.3q.225-.232.454-.454c-.007-.056-.012-.109-.018-.158-.008-.075-.015-.147-.026-.206a.842.842,0,0,1,.828-1.03c.175-.008.351-.026.533-.046.007-.084.015-.169.023-.253.011-.117.022-.235.031-.352a.81.81,0,0,1,.817-.785.981.981,0,0,1,.14.01c.082.012.164.022.25.031,0-.119,0-.234-.007-.346v-.012a.863.863,0,0,1,.234-.651.847.847,0,0,1,.629-.254h.047c.078,0,.147,0,.219,0l.149,0c.067,0,.125,0,.18,0,.189-.2.38-.383.564-.564.136-.133.276-.271.41-.407a.94.94,0,0,1,.677-.292,1.047,1.047,0,0,1,.275.038l.018.005A4.334,4.334,0,0,0,111.953,201.209Zm1.206-7.59h.032a2.1,2.1,0,0,1-.016,4.209h-.011a2.1,2.1,0,0,1-1.485-3.59A2.075,2.075,0,0,1,113.159,193.619Zm.016,2.709a.6.6,0,0,0-.007-1.209h-.009a.586.586,0,0,0-.417.177.6.6,0,0,0-.177.426.6.6,0,0,0,.6.606Z" transform="translate(-100.65 -191.279)" fill="#707070"/>
</svg>
