<svg id="weight" xmlns="http://www.w3.org/2000/svg" width="14" height="14" viewBox="0 0 14 14">
  <g id="Group_4887" data-name="Group 4887">
    <path id="Path_4118" data-name="Path 4118" d="M11.375,0H2.625A2.625,2.625,0,0,0,0,2.625v8.75A2.625,2.625,0,0,0,2.625,14h8.75A2.625,2.625,0,0,0,14,11.375V2.625A2.625,2.625,0,0,0,11.375,0ZM9.692,6.462H4.308L2.154,3.769A6.244,6.244,0,0,1,7,1.615a6.244,6.244,0,0,1,4.846,2.154Z" fill="#ffa849"/>
    <path id="Path_4119" data-name="Path 4119" d="M15.613,11l1.369-5.99L13.02,11Z" transform="translate(-7.09 -3.004)" fill="#ffa849"/>
  </g>
</svg>
